# xmcd
#
# Track frame offsets:
#	150
#	12922
#	26012
#	38622
#	50607
#	64085
#	74925
#	86217
#	99525
#	111435
#	127417
#	141367
#	157085
#	172210
#	187147
#	202232
#	218652
#
# Disc length: 3091 seconds
#
# Revision: 0
# Processed by: cddbd v1.5PL3 Copyright (c) Steve Scherf et al.
# Submitted via: dBpowerAMP V4.0
#
DISCID=1a0c1111
DTITLE=Mickey Gilley - 16 Biggest Hits
DYEAR=1900
DGENRE=Country
TTITLE0=Room Full Of Roses
TTITLE1=I Overlooked An Orchid
TTITLE2=City Lights
TTITLE3=Window Up Above
TTITLE4=Don't The Girls All Get Prettier At Closing Time
TTITLE5=Bring It On Home To Me
TTITLE6=She's Pulling Me Back Again
TTITLE7=True Love Ways
TTITLE8=That's All That Matters
TTITLE9=A Headache Tomorrow (Or A Heartache Tonight)
TTITLE10=You Don't Know Me
TTITLE11=Lonely Nights
TTITLE12=Put Your Dreams Away
TTITLE13=Talk To Me
TTITLE14=Fool For Your Love
TTITLE15=Stand By Me
TTITLE16=Paradise Tonight
EXTD=
EXTT0=
EXTT1=
EXTT2=
EXTT3=
EXTT4=
EXTT5=
EXTT6=
EXTT7=
EXTT8=
EXTT9=
EXTT10=
EXTT11=
EXTT12=
EXTT13=
EXTT14=
EXTT15=
EXTT16=
PLAYORDER=
